<svg height="48" viewBox="0 0 48 48" width="48" xmlns="http://www.w3.org/2000/svg"><g fill="none" fill-rule="evenodd"><path d="m0 0h48v48h-48z" fill="#fff"/><g stroke="#000" stroke-width="1.5" transform="translate(4 2)"><path d="m8.62320833 29.3209167h22.15736107c.4186112 0 .7593056-.3406945.7593056-.7608334v-.5545833c0-1.9647222-1.3688889-3.6651389-3.2877778-4.0852778l-6.7634722-1.7768055c-1.2573611-.275-2.3451389-1.0556945-3.0081944-2.1602778l-1.2161112-2.0273611c-1.1931944 0-2.1602777.9670833-2.1602777 2.1602778v.7516666l-2.8141667 1.0175c-.9518056.34375-.9273611-.2031944-1.2863889-.7761111l-.6431944-1.1366667c-.3452778-.7165277-1.48652781-.6233333-1.73708337.0595834z"/><path d="m13.4376944 4.92505556h6.64125c10.9480556 0 19.8213889 8.87486114 19.8213889 19.82291664 0 10.9465278-8.8733333 19.8213889-19.8213889 19.8213889-10.94652773 0-19.82138884-8.8748611-19.82138884-19.8213889"/><path d="m17.8360139 9.51801389-4.3984722-4.5925 4.5313889-4.53291667"/></g></g></svg>